<svg width="30" height="30" viewBox="0 0 30 30" fill="none" xmlns="http://www.w3.org/2000/svg">
<path d="M14.9991 25.0275L5.39471 14.619L5.3837 14.6073C3.77405 12.9361 3.36903 10.3694 4.39327 8.24311L4.39337 8.24291C5.15551 6.65954 6.59628 5.56651 8.25412 5.28703C9.91077 5.00774 11.6023 5.57104 12.8001 6.81546L12.8002 6.81561L14.4589 8.53803C14.6003 8.68483 14.7954 8.76778 14.9992 8.76778C15.203 8.76778 15.398 8.68483 15.5394 8.53803L17.1981 6.81561L17.1982 6.81546C18.396 5.57104 20.0876 5.00774 21.7442 5.28703C23.402 5.56651 24.8428 6.65951 25.6049 8.24285C26.6278 10.3683 26.2232 12.9331 24.6154 14.6043L24.6046 14.6157L14.9991 25.0275Z" stroke="white" stroke-width="1.5" stroke-linecap="round" stroke-linejoin="round"/>
</svg>
